# xmcd
#
# Track frame offsets:
#	150
#	16828
#	40201
#	65053
#	81458
#	101507
#	121866
#	151486
#	182571
#
# Disc length: 2670 seconds
#
# Revision: 0
# Processed by: cddbd v1.5.2PL0 Copyright (c) Steve Scherf et al.
# Submitted via: EZCDAudioConverter 7.0.0.1
#
DISCID=6e0a6c09
DTITLE=Shamrock - Celtycka
DYEAR=1900
DGENRE=Celtycka
TTITLE0=Donegal
TTITLE1=Patsy Fagan
TTITLE2=The Settler
TTITLE3=Nos na ronne
TTITLE4=The Irish rover
TTITLE5=Shamrock
TTITLE6=Rocky road to Dublin
TTITLE7=Lullaby
TTITLE8=The sally gardenes
EXTD=
EXTT0=
EXTT1=
EXTT2=
EXTT3=
EXTT4=
EXTT5=
EXTT6=
EXTT7=
EXTT8=
PLAYORDER=
